<svg width="502" height="502" viewBox="0 0 502 502" fill="none" xmlns="http://www.w3.org/2000/svg">
<path d="M251 5.05176C267.306 5.05176 283.237 6.6381 298.648 9.66309C372.349 24.1296 434.266 71.5283 468.42 135.918C476.684 151.497 483.322 168.07 488.107 185.41V185.411C493.869 206.286 496.948 228.279 496.948 251C496.948 328.222 461.366 397.129 405.683 442.228C398.29 448.215 390.543 453.784 382.479 458.895C344.453 482.995 299.364 496.948 251 496.948C241.05 496.948 231.24 496.358 221.604 495.21C151.95 486.916 91.2183 449.505 51.9346 395.473C33.7517 370.463 20.1698 341.898 12.4268 311.021C7.61064 291.816 5.05176 271.711 5.05176 251C5.05176 177.415 37.3607 111.383 88.583 66.3037C104.866 51.9738 123.056 39.7635 142.724 30.1045C175.388 14.0623 212.135 5.05176 251 5.05176Z" fill="#F55A0D" stroke="#2D160A" stroke-width="10.1031"/>
<path d="M196.042 71.6946C236.611 84.9311 259.155 132.506 243.885 179.305C228.616 226.104 182.352 251.23 141.783 237.994C101.215 224.757 78.6709 177.181 93.9402 130.382C109.21 83.5831 155.474 58.4583 196.042 71.6946Z" fill="white" stroke="black" stroke-width="20.8377"/>
<path d="M345.063 93.1638C385.631 106.4 408.175 153.975 392.906 200.774C377.636 247.574 331.372 272.699 290.804 259.463C250.235 246.226 227.691 198.65 242.961 151.851C258.23 105.052 304.494 79.9275 345.063 93.1638Z" fill="white" stroke="black" stroke-width="20.8377"/>
<ellipse cx="337.38" cy="210.84" rx="47.109" ry="51.6471" transform="rotate(18.0701 337.38 210.84)" fill="black"/>
<ellipse cx="187.095" cy="181.791" rx="47.109" ry="51.6471" transform="rotate(18.0701 187.095 181.791)" fill="black"/>
<path d="M181.487 274.047C183.614 298.483 231.984 330.864 262.883 285.383" stroke="black" stroke-width="15.7862" stroke-linecap="round"/>
</svg>
