<svg width="20" height="20" viewBox="0 0 20 20" fill="none" xmlns="http://www.w3.org/2000/svg">
  <path d="M8.147 2.073c.31-1.431 2.396-1.431 2.706 0l.216.996a1.39 1.39 0 0 0 1.87.98l.936-.384c1.344-.55 2.82.925 2.27 2.27l-.384.936a1.39 1.39 0 0 0 .98 1.87l.996.216c1.431.31 1.431 2.396 0 2.706l-.996.216a1.39 1.39 0 0 0-.98 1.87l.384.936c.55 1.344-.926 2.82-2.27 2.27l-.936-.384a1.39 1.39 0 0 0-1.87.98l-.216.996c-.31 1.431-2.396 1.431-2.706 0l-.216-.996a1.39 1.39 0 0 0-1.87-.98l-.936.384c-1.344.55-2.82-.926-2.27-2.27l.384-.936a1.39 1.39 0 0 0-.98-1.87l-.996-.216c-1.431-.31-1.431-2.396 0-2.706l.996-.216a1.39 1.39 0 0 0 .98-1.87l-.384-.936c-.55-1.344.926-2.82 2.27-2.27l.936.384a1.39 1.39 0 0 0 1.87-.98l.216-.996Z" stroke="currentColor" stroke-width="1.5"/>
  <circle cx="10" cy="10" r="2.6" stroke="currentColor" stroke-width="1.5"/>
</svg>
