<svg width="32" height="32" viewBox="0 0 32 32" fill="none" xmlns="http://www.w3.org/2000/svg">
<path d="M15.6667 28C15.1144 28 14.6667 27.5523 14.6667 27V18.3333C14.6667 17.7811 14.219 17.3333 13.6667 17.3333H5C4.44772 17.3333 4 16.8856 4 16.3333V15.6667C4 15.1144 4.44772 14.6667 5 14.6667H13.6667C14.219 14.6667 14.6667 14.219 14.6667 13.6667V5C14.6667 4.44772 15.1144 4 15.6667 4H16.3333C16.8856 4 17.3333 4.44772 17.3333 5V13.6667C17.3333 14.219 17.781 14.6667 18.3333 14.6667H27C27.5523 14.6667 28 15.1144 28 15.6667V16.3333C28 16.8856 27.5523 17.3333 27 17.3333H18.3333C17.7811 17.3333 17.3333 17.781 17.3333 18.3333V27C17.3333 27.5523 16.8856 28 16.3333 28H15.6667Z" fill="#D4D4D8"/>
</svg>
