<svg width="24" height="24" viewBox="0 0 24 24" fill="none" xmlns="http://www.w3.org/2000/svg">
<path d="M5 16.0001H15L11.55 11.5001L9.25 14.5001L7.7 12.5001L5 16.0001ZM4.07175 20.2034C3.44209 20.2034 2.9055 19.9816 2.462 19.5381C2.0185 19.0946 1.79675 18.558 1.79675 17.9284V6.07187C1.79675 5.44221 2.0185 4.90562 2.462 4.46212C2.9055 4.01862 3.44209 3.79688 4.07175 3.79688H15.9283C16.5579 3.79688 17.0945 4.01862 17.538 4.46212C17.9815 4.90562 18.2033 5.44221 18.2033 6.07187V10.5001L22.2033 6.50012V17.5001L18.2033 13.5001V17.9284C18.2033 18.558 17.9815 19.0946 17.538 19.5381C17.0945 19.9816 16.5579 20.2034 15.9283 20.2034H4.07175Z" fill="#6B6B6B"/>
<path d="M5 16.0001H15L11.55 11.5001L9.25 14.5001L7.7 12.5001L5 16.0001Z" fill="#6B6B6B"/>
</svg>
