<svg width="28" height="28" viewBox="0 0 28 28" fill="none" xmlns="http://www.w3.org/2000/svg">
<path d="M16.9651 19.4477L13.4904 22.4037C12.2112 23.4919 10.7374 23.9688 9.06879 23.8343C7.40022 23.6999 6.02183 22.9931 4.93362 21.7139C3.8454 20.4348 3.36853 18.9608 3.50299 17.2919C3.63745 15.6231 4.34426 14.2446 5.62341 13.1564L9.09809 10.2003L10.8179 12.2219L7.34546 15.1761C6.62213 15.7914 6.22241 16.5675 6.1463 17.5043C6.07046 18.4412 6.33997 19.2709 6.95482 19.9937C7.56968 20.7164 8.34554 21.1154 9.28243 21.1907C10.2193 21.2657 11.0494 20.9956 11.7728 20.3802L15.2452 17.4261L16.9651 19.4477ZM11.1154 18.059L9.53125 16.197L16.8845 9.94133L18.4686 11.8034L11.1154 18.059ZM18.9018 17.8L17.182 15.7784L20.6544 12.8243C21.3777 12.209 21.7775 11.4329 21.8536 10.4961C21.9294 9.55921 21.6599 8.72943 21.0451 8.00669C20.4302 7.28396 19.6543 6.88495 18.7174 6.80966C17.7805 6.73464 16.9504 7.00481 16.2271 7.62017L12.7546 10.5743L11.0348 8.55271L14.5095 5.5967C15.7887 4.50848 17.2625 4.0316 18.9311 4.16603C20.5997 4.30047 21.978 5.00727 23.0663 6.28642C24.1545 7.56558 24.6313 9.03957 24.4969 10.7084C24.3624 12.3773 23.6556 13.7558 22.3765 14.844L18.9018 17.8Z" fill="#A1A1AA"/>
</svg>
