<svg width="24" height="24" viewBox="0 0 24 24" fill="none" xmlns="http://www.w3.org/2000/svg">
<path d="M11.9992 14.2748C11.1025 14.2748 10.3406 13.9611 9.71347 13.3336C9.0863 12.7061 8.77272 11.9441 8.77272 11.0476V5.08956C8.77272 4.19306 9.08655 3.43106 9.71422 2.80356C10.3419 2.17606 11.104 1.8623 12.0007 1.8623C12.8974 1.8623 13.6593 2.17606 14.2865 2.80356C14.9136 3.43106 15.2272 4.19306 15.2272 5.08956V11.0476C15.2272 11.9441 14.9134 12.7061 14.2857 13.3336C13.658 13.9611 12.8959 14.2748 11.9992 14.2748ZM10.9102 21.3646V18.2656C9.10921 18.0242 7.62213 17.2171 6.44896 15.8443C5.27563 14.4713 4.68896 12.8724 4.68896 11.0476H6.87447C6.87447 12.4669 7.3743 13.676 8.37396 14.6748C9.37363 15.6736 10.5827 16.1731 12.0012 16.1731C13.4195 16.1731 14.6282 15.6734 15.6272 14.6741C16.626 13.6746 17.1255 12.4657 17.1255 11.0476H19.311C19.311 12.8734 18.7243 14.4725 17.551 15.8448C16.3778 17.2173 14.8907 18.0242 13.0897 18.2656V21.3646H10.9102Z" fill="#6B6B6B"/>
</svg>
