<svg width="24" height="24" viewBox="0 0 24 24" fill="none" xmlns="http://www.w3.org/2000/svg">
<path d="M22.203 17.4998L18.203 13.4998V15.2646L6.73502 3.79657H15.928C16.5577 3.79657 17.0943 4.01832 17.5378 4.46182C17.9813 4.90532 18.203 5.44191 18.203 6.07157V10.4998L22.203 6.49982V17.4998ZM20.6395 23.4693L0.530273 3.34807L1.99602 1.88232L22.1173 22.0036L20.6395 23.4693ZM3.91002 3.79657L18.191 18.0776C18.1592 18.6714 17.9255 19.1741 17.49 19.5856C17.0545 19.9972 16.5339 20.2031 15.928 20.2031H4.07152C3.44186 20.2031 2.90527 19.9813 2.46177 19.5378C2.01827 19.0943 1.79652 18.5577 1.79652 17.9281V6.07157C1.79652 5.46974 2.00236 4.95007 2.41402 4.51257C2.82552 4.07507 3.32819 3.84041 3.92202 3.80857L3.91002 3.79657Z" fill="#F50D0D"/>
</svg>
