<svg width="24" height="24" viewBox="0 0 24 24" fill="none" xmlns="http://www.w3.org/2000/svg">
<path d="M18.1207 15.0396L16.5272 13.4461C16.7406 13.0826 16.8996 12.7035 17.0042 12.3088C17.1091 11.914 17.1615 11.4936 17.1615 11.0476H19.3407C19.3407 11.7809 19.2364 12.4837 19.0277 13.1561C18.8191 13.8284 18.5167 14.4562 18.1207 15.0396ZM15.081 11.9618L8.8565 5.7373V4.79655C8.90833 3.98705 9.23783 3.29564 9.845 2.72231C10.4523 2.14897 11.1807 1.8623 12.03 1.8623C12.927 1.8623 13.6901 2.17589 14.3192 2.80305C14.9484 3.43022 15.263 4.19239 15.263 5.08956V11.0476C15.263 11.2229 15.2442 11.3856 15.2065 11.5356C15.1688 11.6856 15.127 11.8276 15.081 11.9618ZM10.9402 21.3646V18.2466C9.13908 18.0052 7.65191 17.2015 6.47874 15.8353C5.30558 14.4693 4.71899 12.8734 4.71899 11.0476H6.90425C6.90425 12.4669 7.40375 13.676 8.40275 14.6748C9.40158 15.6736 10.6107 16.1731 12.03 16.1731C12.6325 16.1731 13.2038 16.0756 13.744 15.8808C14.2842 15.6858 14.7706 15.4141 15.2032 15.0656L16.7657 16.6281C16.2586 17.0512 15.6985 17.404 15.0855 17.6863C14.4727 17.9685 13.8173 18.1552 13.1195 18.2466V21.3646H10.9402ZM19.77 22.5521L1.37 4.15206L2.83 2.69231L21.23 21.0923L19.77 22.5521Z" fill="#F50D0D"/>
</svg>
